<?xml version="1.0" encoding="UTF-8" standalone="no"?>
<svg
   xmlns:dc="http://purl.org/dc/elements/1.1/"
   xmlns:cc="http://creativecommons.org/ns#"
   xmlns:rdf="http://www.w3.org/1999/02/22-rdf-syntax-ns#"
   xmlns:svg="http://www.w3.org/2000/svg"
   xmlns="http://www.w3.org/2000/svg"
   xmlns:sodipodi="http://sodipodi.sourceforge.net/DTD/sodipodi-0.dtd"
   xmlns:inkscape="http://www.inkscape.org/namespaces/inkscape"
   version="1.1"
   id="Capa_1"
   x="0px"
   y="0px"
   width="352.96814"
   height="432.10199"
   viewBox="0 0 352.96814 432.10199"
   xml:space="preserve"
   sodipodi:docname="add-a-contact-on-phone-interface-symbol-of-a-user-with-a-plus-sign-svgrepo-com.svg"
   inkscape:version="1.0.2 (e86c870879, 2021-01-15, custom)"><metadata
   id="metadata939"><rdf:RDF><cc:Work
       rdf:about=""><dc:format>image/svg+xml</dc:format><dc:type
         rdf:resource="http://purl.org/dc/dcmitype/StillImage" /><dc:title /></cc:Work></rdf:RDF></metadata><defs
   id="defs937" /><sodipodi:namedview
   pagecolor="#ffffff"
   bordercolor="#666666"
   borderopacity="1"
   objecttolerance="10"
   gridtolerance="10"
   guidetolerance="10"
   inkscape:pageopacity="0"
   inkscape:pageshadow="2"
   inkscape:window-width="1872"
   inkscape:window-height="1032"
   id="namedview935"
   showgrid="false"
   fit-margin-top="0"
   fit-margin-left="0"
   fit-margin-right="0"
   fit-margin-bottom="0"
   inkscape:zoom="1.2967262"
   inkscape:cx="146.56177"
   inkscape:cy="242.41921"
   inkscape:window-x="24"
   inkscape:window-y="34"
   inkscape:window-maximized="0"
   inkscape:current-layer="Capa_1"
   inkscape:document-rotation="0" />
<g
   id="g902"
   transform="translate(-23.220927)"
   style="fill:#ffffff;fill-opacity:1">
	<path
   d="m 199.671,242.677 c 66.985,0 121.319,-54.353 121.319,-121.271 C 320.99,54.363 266.666,0 199.671,0 132.638,0 78.38,54.373 78.38,121.406 c 0,66.918 54.248,121.271 121.291,121.271 z"
   id="path896"
   style="fill:#ffffff;fill-opacity:1" />
	<path
   d="m 353.006,275.974 c -6.407,-13.722 -14.478,-27.521 -24.786,-40.688 -5.546,-7.057 -15.663,-14.803 -25.445,-20.109 -25.36,28.419 -62.118,46.416 -103.104,46.416 -40.956,0 -77.705,-17.997 -103.036,-46.35 -9.562,5.432 -19.412,13.178 -24.776,20.215 -17.404,22.711 -44.265,66.728 -48.549,126.044 -0.899,12.518 5.059,31.633 15.52,38.929 19.852,13.895 62.672,31.671 151.833,31.671 30.868,0 56.878,-1.903 78.862,-4.867 -8.874,-14.965 -14.066,-32.369 -14.066,-50.997 -0.01,-54.402 43.509,-98.734 97.547,-100.264 z"
   id="path898"
   style="fill:#ffffff;fill-opacity:1" />
	
</g>
<g
   id="g904"
   transform="translate(-23.220927)"
   style="fill:#ffffff;fill-opacity:1">
</g>
<g
   id="g906"
   transform="translate(-23.220927)"
   style="fill:#ffffff;fill-opacity:1">
</g>
<g
   id="g908"
   transform="translate(-23.220927)"
   style="fill:#ffffff;fill-opacity:1">
</g>
<g
   id="g910"
   transform="translate(-23.220927)"
   style="fill:#ffffff;fill-opacity:1">
</g>
<g
   id="g912"
   transform="translate(-23.220927)"
   style="fill:#ffffff;fill-opacity:1">
</g>
<g
   id="g914"
   transform="translate(-23.220927)"
   style="fill:#ffffff;fill-opacity:1">
</g>
<g
   id="g916"
   transform="translate(-23.220927)"
   style="fill:#ffffff;fill-opacity:1">
</g>
<g
   id="g918"
   transform="translate(-23.220927)"
   style="fill:#ffffff;fill-opacity:1">
</g>
<g
   id="g920"
   transform="translate(-23.220927)"
   style="fill:#ffffff;fill-opacity:1">
</g>
<g
   id="g922"
   transform="translate(-23.220927)"
   style="fill:#ffffff;fill-opacity:1">
</g>
<g
   id="g924"
   transform="translate(-23.220927)"
   style="fill:#ffffff;fill-opacity:1">
</g>
<g
   id="g926"
   transform="translate(-23.220927)"
   style="fill:#ffffff;fill-opacity:1">
</g>
<g
   id="g928"
   transform="translate(-23.220927)"
   style="fill:#ffffff;fill-opacity:1">
</g>
<g
   id="g930"
   transform="translate(-23.220927)"
   style="fill:#ffffff;fill-opacity:1">
</g>
<g
   id="g932"
   transform="translate(-23.220927)"
   style="fill:#ffffff;fill-opacity:1">
</g>
<g
   inkscape:groupmode="layer"
   id="layer1"
   inkscape:label="Layer 1"
   style="display:inline"
   transform="translate(-23.220927)"><path
     d="m 46.403997,275.908 c 6.407,-13.722 14.478,-27.521 24.786,-40.688 5.546,-7.057 15.663,-14.803 25.445,-20.109 C 121.995,243.53 158.753,261.527 199.739,261.527 c 40.956,0 77.705,-17.997 103.036,-46.35 9.562,5.432 19.412,13.178 24.776,20.215 17.404,22.711 44.265,66.728 48.549,126.044 0.899,12.518 -5.059,31.633 -15.52,38.929 -19.852,13.895 -62.672,31.671 -151.833,31.671 -30.868,0 -56.878,-1.903 -78.862,-4.867 8.874,-14.965 14.066,-32.369 14.066,-50.997 0.01,-54.402 -43.509,-98.734 -97.547003,-100.264 z"
     id="path941"
     style="fill:#ffffff;fill-opacity:1" /></g></svg>
