<?xml version="1.0" encoding="UTF-8" standalone="no"?>
<svg
   xmlns:dc="http://purl.org/dc/elements/1.1/"
   xmlns:cc="http://creativecommons.org/ns#"
   xmlns:rdf="http://www.w3.org/1999/02/22-rdf-syntax-ns#"
   xmlns:svg="http://www.w3.org/2000/svg"
   xmlns="http://www.w3.org/2000/svg"
   xmlns:sodipodi="http://sodipodi.sourceforge.net/DTD/sodipodi-0.dtd"
   xmlns:inkscape="http://www.inkscape.org/namespaces/inkscape"
   version="1.1"
   id="svg833"
   xml:space="preserve"
   width="43.438667"
   height="42.366489"
   viewBox="0 0 43.438667 42.366489"
   sodipodi:docname="GitHub-Mark.svg"
   inkscape:version="1.0.2 (e86c870879, 2021-01-15, custom)"><metadata
     id="metadata839"><rdf:RDF><cc:Work
         rdf:about=""><dc:format>image/svg+xml</dc:format><dc:type
           rdf:resource="http://purl.org/dc/dcmitype/StillImage" /><dc:title></dc:title></cc:Work></rdf:RDF></metadata><defs
     id="defs837"><clipPath
       clipPathUnits="userSpaceOnUse"
       id="clipPath851"><path
         d="M 0,551.986 H 530.973 V 0 H 0 Z"
         id="path849" /></clipPath></defs><sodipodi:namedview
     pagecolor="#ffffff"
     bordercolor="#666666"
     borderopacity="1"
     objecttolerance="10"
     gridtolerance="10"
     guidetolerance="10"
     inkscape:pageopacity="0"
     inkscape:pageshadow="2"
     inkscape:window-width="1872"
     inkscape:window-height="1032"
     id="namedview835"
     showgrid="false"
     fit-margin-top="0"
     fit-margin-left="0"
     fit-margin-right="0"
     fit-margin-bottom="0"
     inkscape:zoom="12.89734"
     inkscape:cx="5.7733053"
     inkscape:cy="29.954277"
     inkscape:window-x="26"
     inkscape:window-y="34"
     inkscape:window-maximized="0"
     inkscape:current-layer="g845"
     inkscape:document-rotation="0" /><g
     id="g841"
     inkscape:groupmode="layer"
     inkscape:label="GitHub-Mark"
     transform="matrix(1.3333333,0,0,-1.3333333,-181.7604,592.72719)"><g
       id="g845"><g
         id="g847"
         clip-path="url(#clipPath851)"><g
           id="g853"
           transform="translate(152.6083,444.5454)"><path
             d="m 0,0 c -8.995,0 -16.288,-7.293 -16.288,-16.29 0,-7.197 4.667,-13.302 11.14,-15.457 0.815,-0.149 1.112,0.354 1.112,0.786 0,0.386 -0.014,1.411 -0.022,2.77 -4.531,-0.984 -5.487,2.184 -5.487,2.184 -0.741,1.881 -1.809,2.382 -1.809,2.382 -1.479,1.011 0.112,0.991 0.112,0.991 1.635,-0.116 2.495,-1.679 2.495,-1.679 1.453,-2.489 3.813,-1.77 4.741,-1.354 0.148,1.053 0.568,1.771 1.034,2.178 -3.617,0.411 -7.42,1.809 -7.42,8.051 0,1.778 0.635,3.232 1.677,4.371 -0.168,0.412 -0.727,2.068 0.159,4.311 0,0 1.368,0.438 4.48,-1.67 1.299,0.361 2.693,0.542 4.078,0.548 1.383,-0.006 2.777,-0.187 4.078,-0.548 3.11,2.108 4.475,1.67 4.475,1.67 0.889,-2.243 0.33,-3.899 0.162,-4.311 1.044,-1.139 1.675,-2.593 1.675,-4.371 0,-6.258 -3.809,-7.635 -7.438,-8.038 0.585,-0.503 1.106,-1.497 1.106,-3.017 0,-2.177 -0.02,-3.934 -0.02,-4.468 0,-0.436 0.293,-0.943 1.12,-0.784 6.468,2.159 11.131,8.26 11.131,15.455 C 16.291,-7.293 8.997,0 0,0"
             style="fill:#ffffff;fill-opacity:1;fill-rule:evenodd;stroke:none"
             id="path855" /></g><g
           id="g857"
           transform="translate(350.6088,493.5547)" /><g
           id="g861"
           transform="translate(313.0932,406.8515)" /><g
           id="g865"
           transform="translate(315.5395,404.123)" /><g
           id="g869"
           transform="translate(317.9204,400.6455)" /><g
           id="g873"
           transform="translate(321.1821,397.2851)" /><g
           id="g877"
           transform="translate(325.6821,395.334)" /><g
           id="g881"
           transform="translate(330.6245,394.9726)" /><g
           id="g885"
           transform="translate(335.2231,395.7549)" /><g
           id="g889"
           transform="translate(224.8979,499.4882)" /><g
           id="g893"
           transform="translate(224.8979,496.9882)" /><g
           id="g897"
           transform="translate(224.8979,361.9951)" /><g
           id="g901"
           transform="translate(133.2758,347.4795)" /><g
           id="g905"
           transform="translate(137.5537,346.2851)" /><g
           id="g909"
           transform="translate(150.1655,343.0761)" /><g
           id="g917"
           transform="translate(101.854,330.9863)" /><g
           id="g921"
           transform="translate(106.9238,327.7754)" /><g
           id="g925"
           transform="translate(113.8417,331.8857)" /><g
           id="g929"
           transform="translate(122.7333,325.6816)" /><g
           id="g933"
           transform="translate(128.8295,330.1035)" /><g
           id="g937"
           transform="translate(138.3159,329.6836)" /><g
           id="g941"
           transform="translate(140.2172,331.8857)" /><g
           id="g947"
           transform="translate(154.0771,325.6816)" /><g
           id="g951"
           transform="translate(158.1572,332.3769)" /><g
           id="g955"
           transform="translate(165.7832,328.7949)" /><g
           id="g959"
           transform="translate(176.3315,329.6836)" /><g
           id="g963"
           transform="translate(178.2329,331.8857)" /><g
           id="g967"
           transform="translate(335.6333,348.6504)" /><g
           id="g971"
           transform="translate(344.3334,343.0761)" /><g
           id="g975"
           transform="translate(348.3647,346.2871)" /><g
           id="g979"
           transform="translate(354.4545,341.1211)" /><g
           id="g983"
           transform="translate(362.1342,344.4629)" /><g
           id="g987"
           transform="translate(365.3569,346.2871)" /><g
           id="g991"
           transform="translate(318.2573,330.9863)" /><g
           id="g995"
           transform="translate(323.3276,327.7773)" /><g
           id="g999"
           transform="translate(330.2456,331.8867)" /><g
           id="g1003"
           transform="translate(339.1362,325.6826)" /><g
           id="g1007"
           transform="translate(343.2172,332.3789)" /><g
           id="g1011"
           transform="translate(350.8432,328.7968)" /><g
           id="g1015"
           transform="translate(361.3911,329.6845)" /><g
           id="g1019"
           transform="translate(363.2924,331.8867)" /><g
           id="g1023"
           transform="translate(379.1928,329.1269)" /><g
           id="g1027"
           transform="translate(152.6083,168.5454)" /><g
           id="g1031"
           transform="translate(350.6088,217.5547)" /><g
           id="g1035"
           transform="translate(313.0932,130.8515)" /><g
           id="g1039"
           transform="translate(315.5395,128.123)" /><g
           id="g1043"
           transform="translate(317.9204,124.6455)" /><g
           id="g1047"
           transform="translate(321.1821,121.2851)" /><g
           id="g1051"
           transform="translate(325.6821,119.334)" /><g
           id="g1055"
           transform="translate(330.6245,118.9726)" /><g
           id="g1059"
           transform="translate(335.2231,119.7549)" /><g
           id="g1063"
           transform="translate(224.8979,223.4882)" /><g
           id="g1067"
           transform="translate(224.8979,220.9882)" /><g
           id="g1071"
           transform="translate(224.8979,85.9951)" /><g
           id="g1075"
           transform="translate(133.2758,71.4795)" /><g
           id="g1079"
           transform="translate(137.5537,70.2851)" /><g
           id="g1083"
           transform="translate(150.1655,67.0761)" /><g
           id="g1091"
           transform="translate(101.854,54.9863)" /><g
           id="g1095"
           transform="translate(106.9238,51.7754)" /><g
           id="g1099"
           transform="translate(113.8417,55.8857)" /><g
           id="g1103"
           transform="translate(122.7333,49.6816)" /><g
           id="g1107"
           transform="translate(128.8295,54.1035)" /><g
           id="g1111"
           transform="translate(138.3159,53.6836)" /><g
           id="g1115"
           transform="translate(140.2172,55.8857)" /><g
           id="g1121"
           transform="translate(154.0771,49.6816)" /><g
           id="g1125"
           transform="translate(158.1572,56.3769)" /><g
           id="g1129"
           transform="translate(165.7832,52.7949)" /><g
           id="g1133"
           transform="translate(176.3315,53.6836)" /><g
           id="g1137"
           transform="translate(178.2329,55.8857)" /><g
           id="g1141"
           transform="translate(335.6333,72.6504)" /><g
           id="g1145"
           transform="translate(344.3334,67.0761)" /><g
           id="g1149"
           transform="translate(348.3647,70.2871)" /><g
           id="g1153"
           transform="translate(354.4545,65.1211)" /><g
           id="g1157"
           transform="translate(362.1342,68.4629)" /><g
           id="g1161"
           transform="translate(365.3569,70.2871)" /><g
           id="g1165"
           transform="translate(318.2573,54.9863)" /><g
           id="g1169"
           transform="translate(323.3276,51.7773)" /><g
           id="g1173"
           transform="translate(330.2456,55.8867)" /><g
           id="g1177"
           transform="translate(339.1362,49.6826)" /><g
           id="g1181"
           transform="translate(343.2172,56.3789)" /><g
           id="g1185"
           transform="translate(350.8432,52.7968)" /><g
           id="g1189"
           transform="translate(361.3911,53.6845)" /><g
           id="g1193"
           transform="translate(363.2924,55.8867)" /><g
           id="g1197"
           transform="translate(379.1928,53.1269)" /></g></g></g></svg>
