<?xml version="1.0" encoding="UTF-8" standalone="no"?>
<svg
   xmlns:dc="http://purl.org/dc/elements/1.1/"
   xmlns:cc="http://creativecommons.org/ns#"
   xmlns:rdf="http://www.w3.org/1999/02/22-rdf-syntax-ns#"
   xmlns:svg="http://www.w3.org/2000/svg"
   xmlns="http://www.w3.org/2000/svg"
   xmlns:sodipodi="http://sodipodi.sourceforge.net/DTD/sodipodi-0.dtd"
   xmlns:inkscape="http://www.inkscape.org/namespaces/inkscape"
   width="223.57031"
   height="223.56717"
   viewBox="0 0 223.57031 223.56717"
   version="1.1"
   xml:space="preserve"
   style="clip-rule:evenodd;fill-rule:evenodd;stroke-linejoin:round;stroke-miterlimit:2"
   id="svg2659"
   sodipodi:docname="LinkedIn_Logo.svg"
   inkscape:version="1.0.2 (e86c870879, 2021-01-15, custom)"><metadata
   id="metadata2665"><rdf:RDF><cc:Work
       rdf:about=""><dc:format>image/svg+xml</dc:format><dc:type
         rdf:resource="http://purl.org/dc/dcmitype/StillImage" /><dc:title></dc:title></cc:Work></rdf:RDF></metadata><defs
   id="defs2663" /><sodipodi:namedview
   pagecolor="#ffffff"
   bordercolor="#666666"
   borderopacity="1"
   objecttolerance="10"
   gridtolerance="10"
   guidetolerance="10"
   inkscape:pageopacity="0"
   inkscape:pageshadow="2"
   inkscape:window-width="1872"
   inkscape:window-height="1032"
   id="namedview2661"
   showgrid="false"
   fit-margin-top="0"
   fit-margin-left="0"
   fit-margin-right="0"
   fit-margin-bottom="0"
   inkscape:zoom="2.06316"
   inkscape:cx="15.620714"
   inkscape:cy="97.685713"
   inkscape:window-x="24"
   inkscape:window-y="34"
   inkscape:window-maximized="0"
   inkscape:current-layer="g2657" />
    <g
   transform="translate(-797.12997,-287.42554)"
   id="g2657">
        
        <path
   id="path2655"
   style="fill:#ffffff;fill-rule:nonzero;fill-opacity:1"
   d="M 865.67773,0.00195313 V 0.015625 H 675.16406 c -8.943,-0.101 -16.38709,7.1722356 -16.49609,16.115234 V 207.43359 c 0.105,8.948 7.54809,16.22882 16.49609,16.13282 h 190.51367 c 8.97,0.113 16.44055,-7.16682 16.56055,-16.13282 V 16.117188 c -0.12,-8.962002 -7.60055,-16.23323489 -16.56055,-16.11523487 z M 708.40625,30.779297 c 10.545,0 19.22261,8.67475 19.22461,19.21875 v 0.0059 c 0,10.544 -8.6767,19.221659 -19.2207,19.222656 h -0.004 c -10.546,0 -19.22461,-8.676656 -19.22461,-19.222656 0,-10.546 8.67861,-19.224609 19.22461,-19.224609 z m 98.61133,50.371094 c 0.7942,-0.02517 1.5934,-0.02401 2.39453,0.0059 33.575,0 39.76562,22.083449 39.76562,50.814449 l -0.0137,58.52344 h -33.12695 v -51.87695 c 0,-12.371 -0.22052,-28.29688 -17.22852,-28.29688 -17.254,0 -19.89453,13.47949 -19.89453,27.39649 v 52.77343 H 745.78711 V 83.808594 h 31.80273 v 14.580078 h 0.44532 c 6.07031,-10.379063 17.06941,-16.860787 28.98242,-17.238281 z M 691.8125,83.808594 h 33.16016 V 190.49414 H 691.8125 Z"
   transform="translate(138.462,287.425)" />
    </g>
</svg>
