<?xml version="1.0" encoding="UTF-8" standalone="no"?>
<svg
   xmlns:dc="http://purl.org/dc/elements/1.1/"
   xmlns:cc="http://creativecommons.org/ns#"
   xmlns:rdf="http://www.w3.org/1999/02/22-rdf-syntax-ns#"
   xmlns:svg="http://www.w3.org/2000/svg"
   xmlns="http://www.w3.org/2000/svg"
   xmlns:sodipodi="http://sodipodi.sourceforge.net/DTD/sodipodi-0.dtd"
   xmlns:inkscape="http://www.inkscape.org/namespaces/inkscape"
   version="1.1"
   x="0px"
   y="0px"
   viewBox="0 0 980.00586 979.33331"
   enable-background="new 0 0 1000 1000"
   xml:space="preserve"
   id="svg877"
   sodipodi:docname="whatsapp.svg"
   width="980.00586"
   height="979.33331"
   inkscape:version="1.0.2 (e86c870879, 2021-01-15, custom)"><defs
   id="defs881" /><sodipodi:namedview
   pagecolor="#ffffff"
   bordercolor="#666666"
   borderopacity="1"
   objecttolerance="10"
   gridtolerance="10"
   guidetolerance="10"
   inkscape:pageopacity="0"
   inkscape:pageshadow="2"
   inkscape:window-width="1843"
   inkscape:window-height="1096"
   id="namedview879"
   showgrid="false"
   fit-margin-top="0"
   fit-margin-left="0"
   fit-margin-right="0"
   fit-margin-bottom="0"
   inkscape:zoom="0.839"
   inkscape:cx="489.99725"
   inkscape:cy="489.66591"
   inkscape:window-x="22"
   inkscape:window-y="-12"
   inkscape:window-maximized="0"
   inkscape:current-layer="g875" />
<metadata
   id="metadata867"> Svg Vector Icons : http://www.onlinewebfonts.com/icon <rdf:RDF><cc:Work
     rdf:about=""><dc:format>image/svg+xml</dc:format><dc:type
       rdf:resource="http://purl.org/dc/dcmitype/StillImage" /><dc:title></dc:title></cc:Work></rdf:RDF></metadata>
<g
   id="g875"
   transform="translate(-10.002753,-10.33409)"><g
     transform="matrix(0.1,0,0,-0.1,0,462)"
     id="g873"><path
       d="M 4472.9,4492.4 C 2377.1,4206.7 746.1,2682.3 347.4,637.7 149.1,-387.8 296.2,-1432.5 775.9,-2398.3 l 172.7,-343.2 -428.5,-1264.4 c -236.7,-692.9 -424.3,-1266.4 -420,-1270.7 4.3,-4.3 601.2,179.1 1324,409.4 l 1317.6,420 251.6,-119.4 c 1029.8,-481.8 2172.6,-599.1 3259.9,-330.5 1669.4,413.6 3012.6,1709.9 3475.3,3355.8 194,695 226,1522.3 83.2,2228 -328.3,1618.2 -1483.9,2963.6 -3048.8,3545.6 -236.7,89.6 -622.6,189.8 -914.7,240.9 -279.4,46.9 -1087.5,59.7 -1375.3,19.2 z m 1194,-769.6 c 1571.3,-213.2 2906,-1383.7 3326,-2918.8 179.1,-654.6 187.6,-1385.8 23.4,-2034 -336.9,-1326.1 -1341,-2402.8 -2645.9,-2835.6 -1115.1,-371 -2351.7,-243 -3343.1,347.5 -91.7,53.3 -174.8,98.1 -183.4,98.1 -6.4,0 -356.1,-108.8 -776.1,-243.1 -417.9,-132.2 -761.1,-234.5 -761.1,-223.9 0,8.5 110.9,343.3 247.3,742 l 247.3,724.9 -110.9,166.3 c -138.6,208.9 -362.5,663.1 -445.6,904 -650.1,1884.7 209.1,3969.9 2012.8,4882.4 744.1,375.2 1552.2,505.3 2409.3,390.2 z"
       id="path869"
       style="fill:#ffffff;fill-opacity:1" /><path
       d="m 3272.6,1878.5 c -168.4,-83.1 -400.8,-407.2 -486.1,-678 -17.1,-53.3 -38.4,-194 -44.8,-311.3 -14.9,-272.9 38.4,-509.6 185.5,-816.6 108.7,-226 360.3,-605.5 609.8,-916.8 437.1,-547.9 976.5,-995.7 1488.2,-1240.9 398.7,-189.8 1012.7,-392.3 1272.8,-420 356.1,-36.3 897.6,200.4 1087.4,477.6 123.7,179.1 191.9,618.3 108.7,695 -42.6,38.4 -850.7,432.8 -1010.6,494.6 -55.4,21.3 -123.7,32 -151.4,23.4 -32,-6.4 -115.1,-91.7 -209,-208.9 -230.2,-289.7 -343.2,-400.6 -405.1,-400.6 -83.1,0 -496.8,200.4 -729.1,353.9 -296.4,196.2 -678,579.9 -884.8,889.1 -85.3,125.8 -153.5,253.7 -153.5,281.4 0,29.9 55.4,113 149.2,221.7 136.4,159.9 255.8,349.6 255.8,409.4 0,12.8 -98.1,260.1 -217.5,550.1 -140.7,336.9 -238.8,545.8 -275,584.2 -55.4,55.4 -66.1,57.6 -279.3,57.6 -181.2,-0.1 -236.6,-8.6 -311.2,-44.9 z"
       id="path871"
       style="fill:#ffffff;fill-opacity:1;stroke-width:0.982677;stroke-miterlimit:4;stroke-dasharray:none" /></g></g>
</svg>
